HIERARCHY
ROOT Hips
{
  OFFSET -32.5998 29.0326 120.673
  CHANNELS 6 Xposition Yposition Zposition Zrotation Xrotation Yrotation
  JOINT LeftUpLeg
  {
    OFFSET 8.64259 1.95398 -2.38835
    CHANNELS 3 Zrotation Xrotation Yrotation
    JOINT LeftLeg
    {
      OFFSET 43.7702 0 0
      CHANNELS 3 Zrotation Xrotation Yrotation
      JOINT LeftFoot
      {
        OFFSET 40.6238 0 0
        CHANNELS 3 Zrotation Xrotation Yrotation
        JOINT LeftToeBase
        {
          OFFSET 12.7242 0 0
          CHANNELS 3 Zrotation Xrotation Yrotation
          End Site
          {
            OFFSET 0 0 0
          }
        }
      }
    }
  }
  JOINT RightUpLeg
  {
    OFFSET -8.2249 1.95398 -2.59336
    CHANNELS 3 Zrotation Xrotation Yrotation
    JOINT RightLeg
    {
      OFFSET 43.5653 0 0
      CHANNELS 3 Zrotation Xrotation Yrotation
      JOINT RightFoot
      {
        OFFSET 40.6238 0 0
        CHANNELS 3 Zrotation Xrotation Yrotation
        JOINT RightToeBase
        {
          OFFSET 12.7242 0 0
          CHANNELS 3 Zrotation Xrotation Yrotation
          End Site
          {
            OFFSET 0 0 0
          }
        }
      }
    }
  }
  JOINT Spine
  {
    OFFSET 0.165834 0.87714 6.61349
    CHANNELS 3 Zrotation Xrotation Yrotation
    JOINT Spine1
    {
      OFFSET 7.38963 1.71661e-005 0
      CHANNELS 3 Zrotation Xrotation Yrotation
      JOINT Spine2
      {
        OFFSET 11.9445 1.14441e-005 0
        CHANNELS 3 Zrotation Xrotation Yrotation
        JOINT Spine3
        {
          OFFSET 14.7254 4.19617e-005 0
          CHANNELS 3 Zrotation Xrotation Yrotation
          JOINT Spine4
          {
            OFFSET 10.9679 0 0
            CHANNELS 3 Zrotation Xrotation Yrotation
            JOINT RightShoulder
            {
              OFFSET 2.46616 -1.6653 3.69651
              CHANNELS 3 Zrotation Xrotation Yrotation
              JOINT RightArm
              {
                OFFSET 13.0012 0 0
                CHANNELS 3 Zrotation Xrotation Yrotation
                JOINT RightForeArm
                {
                  OFFSET 28.7848 1.62311e-005 0
                  CHANNELS 3 Zrotation Xrotation Yrotation
                  JOINT RightHand
                  {
                    OFFSET 26.5688 1.62095e-005 0
                    CHANNELS 3 Zrotation Xrotation Yrotation
                    End Site
                    {
                      OFFSET 0 0 0
                    }
                  }
                }
              }
            }
            JOINT LeftShoulder
            {
              OFFSET 2.38034 -1.29275 -3.7523
              CHANNELS 3 Zrotation Xrotation Yrotation
              JOINT LeftArm
              {
                OFFSET 16.3182 6.07031e-005 0
                CHANNELS 3 Zrotation Xrotation Yrotation
                JOINT LeftForeArm
                {
                  OFFSET 27.0901 0 0
                  CHANNELS 3 Zrotation Xrotation Yrotation
                  JOINT LeftHand
                  {
                    OFFSET 24.5451 1.51738e-005 0
                    CHANNELS 3 Zrotation Xrotation Yrotation
                    End Site
                    {
                      OFFSET 0 0 0
                    }
                  }
                }
              }
            }
            JOINT Neck
            {
              OFFSET 5.0226 -0.0266342 0
              CHANNELS 3 Zrotation Xrotation Yrotation
              JOINT Head
              {
                OFFSET 6.69364 2.86102e-005 0
                CHANNELS 3 Zrotation Xrotation Yrotation
                End Site
                {
                  OFFSET 0 0 0
                }
              }
            }
          }
        }
      }
    }
  }
}
MOTION
Frames:	17
Frame Time:	0.0416667
17.9493 99.7982 -53.3537 -130.214 -78.83 -132.573 -174.921 -0.856659 82.6465 -21.9799 -1.3691 -2.05855 76.5431 8.20121 -1.89675 13.1651 -11.5768 7.84314 176.728 16.5957 89.0856 -48.2523 -7.76457 -3.38559 69.3199 -5.10431 -2.0289 22.0492 2.02288 3.35313 -0.0170841 7.9034 -89.7781 11.0677 0.0689643 0.434926 -0.60329 0.0880353 0.431461 -23.138 -0.0649382 0.435542 -3.12538 -0.0649346 0.435545 91.7805 -26.3533 -104.489 45.1134 -18.692 -2.93512 -13.4882 -12.4914 -26.2201 -10.007 -0.0318381 -5.04445 -87.2462 -46.986 82.3323 -16.022 14.0995 -24.9547 6.32644 -16.1377 -9.06147 -0.116112 -0.111239 -5.45841 1.85093 3.16532 -1.70584 -8.0817 3.40498 -0.230863 
17.3003 99.044 -46.0594 -148.145 -82.3843 -150.663 -174.973 -5.3362 83.1675 -21.2578 3.09773 -1.33439 80.3873 10.6163 -1.77622 13.021 -11.9613 8.31868 175.903 19.6812 89.6578 -26.3002 -5.13243 -0.574974 63.8884 -2.29576 -1.53332 24.0242 1.22092 3.21155 -0.641527 7.9326 -89.8365 11.0113 -1.20126 0.440376 -0.659128 -1.18071 0.492819 -23.1987 -1.27808 0.0589336 -3.18606 -1.27807 0.0589324 92.2963 -27.6549 -102.948 45.6797 -15.3354 3.27192 -14.7292 -13.7949 -27.3155 -8.58492 -0.0883457 -4.2165 -87.4813 -43.1184 81.2259 -15.05 11.1257 -35.6478 7.34 -12.7407 -13.3285 1.02642 -0.14861 -6.32747 1.87521 3.18925 -3.91903 -7.89433 3.68369 2.06617 
16.7881 97.4183 -37.8835 178.135 -83.546 174.297 -174.56 -11.7631 83.6756 -19.8528 7.00347 -1.16319 84.8393 13.5635 -2.95854 14.8526 -12.3776 10.6855 174.899 19.7355 88.3434 -6.50486 0.177696 1.22697 61.8766 -1.81483 -1.46904 24.7893 0.237159 5.54122 -1.08398 7.98966 -89.7356 10.902 -2.03586 0.717935 -0.767615 -2.00229 0.806859 -23.3155 -2.15747 0.0726135 -3.30284 -2.15746 0.0726075 92.7283 -29.042 -101.605 46.4169 -12.0807 7.86652 -12.5389 -12.634 -22.8767 -9.56028 -0.071343 -4.55669 -88.201 -41.5202 79.7107 -12.639 8.78013 -44.7643 9.32282 -6.9972 -15.7338 0.77098 -0.162629 -6.99766 1.45954 3.00135 -5.53781 -7.37474 3.70539 3.08729 
16.3273 95.2241 -28.988 144.033 -82.212 138.876 -173.709 -17.9855 85.1785 -19.0977 11.5082 -0.786296 88.0977 16.2012 -3.87151 18.1612 -12.044 13.5056 174.262 23.0259 86.2359 -6.08309 8.76507 1.63696 64.1833 -2.138 -0.726116 26.9108 -0.164273 3.80261 -1.38415 7.99771 -89.7364 10.8893 -2.63393 0.772031 -0.779315 -2.59739 0.88726 -23.3359 -2.7441 -0.0558573 -3.32329 -2.74409 -0.0558642 93.2551 -29.0947 -100.516 48.0311 -11.5887 10.702 -9.24853 -10.3934 -15.9777 -7.63051 0.0539314 -6.42854 -89.2426 -42.2044 78.1477 -11.7297 8.61104 -50.9102 10.1648 -3.95427 -15.6074 -0.215832 -0.143407 -7.21204 2.50314 2.21214 -5.61321 -7.76862 2.96267 3.52225 
16.0921 94.2324 -19.6513 123.563 -79.6242 118.126 -172.954 -19.6625 87.2168 -23.6921 14.2609 0.41737 82.533 14.6604 0.169475 30.1614 -5.33773 14.2084 171.616 27.3414 84.0329 -17.6344 7.18124 3.737 59.7478 2.6563 -0.224576 22.3847 2.54212 1.31545 -1.46562 8.03658 -89.9595 10.8085 -2.89964 0.351037 -0.859275 -2.88137 0.478408 -23.42 -2.87098 -0.5374 -3.40737 -2.87098 -0.537409 92.9572 -28.6776 -101.25 48.624 -10.8169 10.5789 -6.27697 -7.45462 -6.82024 -6.43789 0.12038 -8.00754 -90.2748 -42.7502 76.6071 -11.0517 12.6443 -54.5816 9.37354 -1.78939 -10.7809 -1.28158 -0.114199 -6.7325 6.30806 1.29447 -3.056 -8.34553 1.74431 2.72684 
15.6073 93.6157 -11.4008 116.08 -79.5053 111.139 -170.255 -10.5746 90.6212 -42.846 16.0341 -0.191262 69.7136 6.31147 3.40358 37.9675 0.179023 10.9561 169.138 33.3376 83.5002 -33.6647 1.8188 6.59184 61.0512 2.84178 -0.817261 10.8625 6.75988 3.83986 -1.14773 8.31784 -90.2498 10.2366 -2.40092 -0.290935 -1.43217 -2.41139 -0.184931 -23.9826 -2.20243 -0.999386 -3.97 -2.20243 -0.999408 92.0932 -27.0358 -103.587 46.6922 -13.1315 6.22182 -5.27017 -6.09895 -4.52776 -6.17931 0.105857 -7.83622 -90.7576 -40.511 75.214 -5.08718 19.2504 -60.4381 5.1896 -0.709363 -0.405985 -4.35372 -0.0464435 -6.91865 12.8307 0.619994 -0.60894 -7.95739 0.673554 2.09112 
14.7386 92.7598 -6.72638 109.535 -79.8882 105.587 -164.075 9.62049 96.8786 -69.3744 14.4403 -1.79538 60.2223 -0.940095 1.88702 4.54738 -11.5586 0.812407 165.302 36.3302 85.6839 -42.516 -1.50564 7.73073 64.8547 -1.09817 -3.11993 13.2403 5.27087 4.86164 -0.752564 8.98903 -90.491 8.88901 -1.71988 -0.855784 -2.78103 -1.75587 -0.779253 -25.3205 -1.38319 -1.33316 -5.30782 -1.38318 -1.33315 90.8486 -25.2027 -106.926 37.341 -17.0889 -4.62027 -5.94695 -10.121 -8.61593 -8.13115 -0.044918 -4.70478 -90.9118 -38.1609 74.2796 7.56102 21.9634 -70.9004 -0.877687 2.86115 0.103465 -9.92034 0.207683 -6.82568 20.8224 -0.110335 0.397151 -7.56182 -0.287346 1.35362 
14.6024 91.7431 -3.95511 84.3326 -81.3612 79.4614 -155.17 28.9117 90.3784 -78.5172 10.9039 -4.81384 69.6075 5.22914 3.19838 9.30558 -10.0027 2.18109 161.702 41.9854 86.0053 -47.4691 -5.47505 9.6324 67.9494 -3.94901 -4.1706 13.9582 4.65461 5.62436 -0.35929 9.44387 -90.5669 7.98051 -0.965132 -1.06353 -3.69053 -1.01101 -1.02003 -26.2232 -0.600927 -1.30439 -6.21053 -0.60093 -1.3044 91.4334 -22.0307 -106.98 25.7828 -11.6417 -20.1116 -9.60956 -16.324 -12.6472 -14.658 -0.624555 -0.672294 -91.4709 -37.6069 73.1533 8.80632 18.0744 -72.7716 2.48568 14.0506 -1.59734 -1.53303 0.0428302 -0.732263 25.7476 -0.184981 2.59666 -4.90315 -1.13522 0.995986 
14.8645 89.8997 -1.77847 41.9512 -81.6498 35.9331 -145.508 42.8503 85.3429 -72.9591 6.39575 -10.4412 72.7367 6.98294 1.85089 12.5571 -8.58567 2.52887 157.246 49.6725 87.6111 -52.7924 -11.3104 11.8104 70.4036 -6.1931 -4.62658 14.0175 4.14763 6.83881 0.160682 9.703 -90.3779 7.46837 0.157231 -0.753216 -4.20279 0.123931 -0.759397 -26.7366 0.376326 -0.671149 -6.72391 0.376331 -0.671137 92.8634 -15.9078 -106.482 24.8343 -6.67249 -34.2393 -12.7805 -21.0403 -14.5126 -17.7246 -1.01513 1.52313 -91.1644 -36.0333 73.1831 9.13371 15.3206 -75.1127 5.6597 19.2166 -4.5371 5.69531 0.607862 5.58577 28.4143 -0.252358 2.3784 -3.63414 -1.15708 1.6364 
15.6279 87.3788 0.514044 16.1398 -79.7721 10.3143 -145.167 53.0617 88.048 -62.8937 6.14796 -13.9625 71.8425 6.41447 1.0152 11.6748 -10.0817 4.19925 149.377 56.1494 91.9794 -59.7863 -17.7097 13.506 70.9373 -7.15995 -4.69011 15.3198 2.92063 8.68101 0.417978 10.0686 -90.3247 6.73838 0.696311 -0.667086 -4.93256 0.666269 -0.697098 -27.4686 0.864597 -0.426974 -7.45592 0.864603 -0.426971 93.1361 -13.1535 -107.144 17.1422 -10.1722 -48.4873 -7.9044 -20.6839 -8.00663 -18.2053 -0.902318 0.561161 -92.2164 -36.3477 71.455 7.42187 12.6712 -77.3015 5.07488 25.7189 -1.12224 6.92838 0.78272 6.33401 32.3307 0.0768507 2.1545 -3.6611 -0.83579 1.38898 
17.2382 83.2391 2.92303 2.78739 -77.2902 -3.40394 -146.953 61.5894 92.9402 -59.7387 10.7593 -14.0061 66.9713 3.49492 1.17173 7.55127 -11.5654 3.1581 137.151 63.7348 99.8649 -70.2917 -25.4447 12.8692 71.8685 -8.69882 -5.64295 15.531 2.36605 9.95147 0.559613 10.6229 -90.2192 5.63031 1.02676 -0.457601 -6.04033 1.00562 -0.502355 -28.5787 1.11681 -0.127825 -8.56606 1.1168 -0.12783 92.802 -13.3838 -107.93 12.3193 -9.71518 -59.0855 -5.77209 -21.8809 -4.58807 -17.6927 -1.14171 2.29633 -91.1196 -32.0047 71.9194 8.64876 11.8623 -82.3261 4.95909 31.7995 -1.8836 6.41524 0.861137 7.9033 40.6727 0.397601 2.85834 -5.13431 -1.05179 0.80001 
19.9828 76.9282 5.33103 -9.25595 -75.5497 -15.1805 -136.068 70.724 88.0023 -71.0163 20.9128 -11.772 63.9538 1.98827 3.04216 14.1801 -8.64575 3.89483 115.834 70.8287 117.4 -84.9416 -31.6579 9.19385 72.4652 -9.91631 -6.86623 16.2852 1.14483 12.573 0.685647 10.7663 -90.0404 5.34145 1.35324 -0.107698 -6.32882 1.34719 -0.167164 -28.8694 1.32303 0.304066 -8.8567 1.32303 0.304057 89.6757 -18.073 -113.097 7.86543 -11.8194 -58.9341 -7.77841 -31.0763 -9.8462 -18.3528 -1.71905 5.79145 -91.9955 -34.2214 71.1091 12.3083 12.9698 -82.6372 4.08953 33.9705 -2.99988 3.51982 0.501601 7.47669 45.118 0.964482 2.28784 -6.62874 -0.332074 0.0228543 
23.1833 69.6358 6.91347 -15.9048 -73.9999 -21.0744 -98.7483 78.1086 54.9513 -89.8431 23.6766 -6.36094 68.1957 4.95553 3.11754 18.6845 -7.94625 6.8406 79.0451 74.2585 151.593 -100.312 -35.4757 3.76103 72.1789 -10.6512 -8.64271 16.8974 0.903967 12.6662 0.790126 11.1081 -90.0033 4.65732 1.57748 -0.0260643 -7.01268 1.57481 -0.0954899 -29.5551 1.51236 0.449352 -9.54245 1.51237 0.449343 88.0485 -19.8299 -115.841 6.59954 -11.6629 -59.811 -8.69866 -37.017 -11.2557 -21.3862 -2.73031 9.51717 -92.8322 -34.5039 69.7262 11.5984 11.3866 -83.1932 4.45288 35.5371 -2.8356 2.8117 0.544304 9.59254 50.0787 0.973859 2.35203 -7.3319 -0.419326 -1.26102 
26.288 62.7151 7.89371 -21.0629 -73.0215 -25.4513 -51.2065 77.2719 9.53754 -105.523 23.3753 -0.982939 73.5188 9.22356 5.06621 22.6716 -6.84267 8.72013 47.4952 72.4838 -177.93 -113.141 -36.0674 -0.977863 73.1165 -12.0488 -9.60679 18.797 0.469456 12.0482 0.911506 11.5166 -89.9628 3.83954 1.83613 0.0699341 -7.83012 1.83742 -0.0109809 -30.3748 1.73019 0.618709 -10.3621 1.73019 0.618692 87.4897 -20.5659 -116.651 3.37025 -12.0693 -60.8955 -9.58712 -35.1698 -12.5041 -17.9904 -2.25447 9.41213 -92.8933 -33.6157 69.2837 10.8589 9.87203 -84.1538 3.58309 37.3223 -1.48561 -0.6014 0.102079 8.04108 54.2179 0.908373 2.468 -8.16372 -0.605894 -1.9264 
28.7975 56.5355 8.69729 -27.7883 -73.2593 -31.7531 -32.2932 73.7182 -7.98706 -117.748 20.6299 2.96324 79.8766 13.7393 5.02019 24.7445 -5.87788 9.01562 31.1811 70.4935 -161.704 -123.079 -35.9701 -4.21663 77.0249 -16.112 -10.3764 18.8324 1.14567 9.98164 1.03894 11.9803 -89.9328 2.91075 2.10176 0.153336 -8.75851 2.10646 0.0606246 -31.3058 1.95847 0.778155 -11.2932 1.95846 0.778125 87.7106 -20.1539 -116.408 5.47637 -8.86565 -61.2424 -12.1428 -43.9389 -14.2003 -21.8727 -3.63562 13.9957 -93.0586 -33.7742 69.0485 11.6258 9.88383 -84.3287 3.43101 36.7746 -1.52043 0.175634 0.202863 8.89674 56.6137 1.66008 3.73267 -9.00388 -0.755292 -2.35498 
30.1951 51.2798 9.37445 -34.8703 -74.1671 -37.3576 -18.427 71.9736 -21.4203 -126.909 17.002 5.26008 84.8871 17.0598 4.84276 24.5718 -4.59839 6.12505 27.4033 69.8618 -156.483 -130.318 -32.9964 -5.64047 83.6359 -22.0853 -10.3848 18.9103 2.15159 6.90891 1.1121 12.3387 -89.9886 2.19406 2.22508 0.0672571 -9.47497 2.22588 -0.0307944 -32.0242 2.10194 0.733167 -12.0115 2.10195 0.733169 87.9852 -19.6469 -116.095 7.60795 -9.4189 -59.9318 -14.267 -41.0851 -16.4743 -21.1153 -3.19708 12.2936 -93.339 -34.2729 68.7406 11.6641 11.6542 -83.4382 2.82448 37.9673 -1.12864 2.01302 0.461647 9.6463 57.0779 2.6182 4.26959 -8.27289 -0.212593 -3.18135 
30.4042 47.3805 10.1886 -40.2829 -77.4555 -40.6238 -10.6596 74.0781 -30.5776 -132.51 13.6696 5.93267 92.4718 21.4899 2.85333 24.6427 -5.43571 7.95577 27.4068 71.2371 -155.282 -135.544 -27.673 -6.09808 87.423 -24.2557 -8.97394 21.4499 2.05539 4.04552 1.06017 12.805 -90.1851 1.2653 2.04592 -0.296632 -10.4041 2.03089 -0.38642 -32.9521 2.04044 0.332227 -12.9395 2.04044 0.332231 88.4251 -19.3897 -115.244 9.71336 -10.8716 -58.4324 -21.8608 -44.6513 -24.8408 -22.068 -4.01602 15.7569 -93.1457 -34.5591 69.1901 9.5003 13.6565 -82.5155 3.78135 35.7435 -1.47027 5.14308 0.794158 10.716 56.6546 2.798 3.54505 -7.05867 0.42732 -3.34178 
